<svg width="280" height="280" viewBox="0 0 280 280" fill="none" xmlns="http://www.w3.org/2000/svg">
<path d="M35 200.603L54.322 185.767" stroke="#FAF8F4" stroke-width="8" stroke-linecap="round"/>
<path d="M68.3594 208V70.5H105.625C115.625 70.5 122.891 72.9479 127.422 77.8438C132.005 82.6875 134.297 90.7083 134.297 101.906V107.922C134.297 114.38 133.125 119.615 130.781 123.625C128.49 127.635 124.974 130.266 120.234 131.516C126.432 133.078 130.573 136.75 132.656 142.531C134.792 148.26 135.859 155.266 135.859 163.547C135.859 172.453 135.026 180.24 133.359 186.906C131.693 193.573 128.672 198.755 124.297 202.453C119.922 206.151 113.698 208 105.625 208H68.3594ZM95.2344 122.297H100.859C103.411 122.297 105.052 121.307 105.781 119.328C106.51 117.349 106.875 114.979 106.875 112.219V98.3906C106.875 93.9635 104.922 91.75 101.016 91.75H95.2344V122.297ZM97.9688 183.781C105.104 183.781 108.672 180.396 108.672 173.625V156.438C108.672 152.531 108.073 149.458 106.875 147.219C105.729 144.927 103.542 143.781 100.312 143.781H95.2344V183.625C96.3802 183.729 97.2917 183.781 97.9688 183.781ZM177.578 209.25C165.026 209.25 155.964 206.125 150.391 199.875C144.87 193.625 142.109 183.677 142.109 170.031V156.594H169.297V173.781C169.297 176.958 169.766 179.458 170.703 181.281C171.693 183.052 173.385 183.938 175.781 183.938C178.281 183.938 180 183.208 180.938 181.75C181.927 180.292 182.422 177.896 182.422 174.562C182.422 170.344 182.005 166.828 181.172 164.016C180.339 161.151 178.88 158.443 176.797 155.891C174.766 153.286 171.927 150.266 168.281 146.828L155.938 135.109C146.719 126.411 142.109 116.464 142.109 105.266C142.109 93.5469 144.818 84.6146 150.234 78.4688C155.703 72.3229 163.594 69.25 173.906 69.25C186.51 69.25 195.443 72.6094 200.703 79.3281C206.016 86.0469 208.672 96.2552 208.672 109.953H180.703V100.5C180.703 98.625 180.156 97.1667 179.062 96.125C178.021 95.0833 176.589 94.5625 174.766 94.5625C172.578 94.5625 170.964 95.1875 169.922 96.4375C168.932 97.6354 168.438 99.1979 168.438 101.125C168.438 103.052 168.958 105.135 170 107.375C171.042 109.615 173.099 112.193 176.172 115.109L192.031 130.344C195.208 133.365 198.125 136.568 200.781 139.953C203.438 143.286 205.573 147.193 207.188 151.672C208.802 156.099 209.609 161.516 209.609 167.922C209.609 180.839 207.214 190.969 202.422 198.312C197.682 205.604 189.401 209.25 177.578 209.25Z" fill="#FAF8F4"/>
<path d="M119.875 237V227.363H119.335V225.097H119.875V224.25C119.875 222.911 120.545 222.241 121.884 222.241C122.515 222.241 123.024 222.321 123.411 222.482V224.316C123.273 224.289 123.181 224.275 123.137 224.275C122.966 224.275 122.861 224.339 122.822 224.466C122.783 224.588 122.764 224.745 122.764 224.939V225.097H123.411V227.396H122.822V237H119.875ZM126.632 237.133C125.94 237.133 125.412 236.972 125.046 236.651C124.687 236.33 124.44 235.89 124.308 235.332C124.175 234.773 124.108 234.139 124.108 233.431C124.108 232.673 124.183 232.053 124.333 231.571C124.482 231.084 124.736 230.686 125.096 230.376C125.461 230.066 125.962 229.803 126.599 229.587L128.441 228.957V227.678C128.441 227.009 128.223 226.674 127.786 226.674C127.387 226.674 127.188 226.945 127.188 227.487V228.234H124.299C124.294 228.19 124.291 228.135 124.291 228.068C124.291 227.996 124.291 227.916 124.291 227.828C124.291 226.588 124.582 225.711 125.163 225.196C125.749 224.676 126.676 224.416 127.943 224.416C128.607 224.416 129.202 224.535 129.728 224.773C130.254 225.005 130.669 225.351 130.973 225.811C131.283 226.27 131.438 226.837 131.438 227.512V237H128.483V235.522C128.339 236.043 128.101 236.441 127.769 236.718C127.437 236.994 127.058 237.133 126.632 237.133ZM127.802 234.825C128.046 234.825 128.212 234.723 128.3 234.518C128.389 234.313 128.433 234.092 128.433 233.854V230.384C128.024 230.55 127.705 230.761 127.479 231.015C127.252 231.264 127.138 231.632 127.138 232.119V233.721C127.138 234.457 127.36 234.825 127.802 234.825ZM132.583 237V224.549H135.605V225.935C135.749 225.454 136.003 225.077 136.369 224.806C136.734 224.535 137.193 224.399 137.747 224.399V226.881C137.503 226.881 137.213 226.909 136.875 226.964C136.537 227.014 136.241 227.086 135.987 227.18C135.732 227.269 135.605 227.368 135.605 227.479V237H132.583ZM138.477 237V224.549H141.382V225.993C141.515 225.484 141.742 225.094 142.063 224.823C142.384 224.552 142.854 224.416 143.474 224.416C143.972 224.416 144.396 224.532 144.744 224.765C145.098 224.992 145.347 225.293 145.491 225.669C145.718 225.26 145.984 224.95 146.288 224.74C146.598 224.524 147.038 224.416 147.608 224.416C148.3 224.416 148.831 224.565 149.202 224.864C149.578 225.158 149.838 225.567 149.982 226.093C150.131 226.613 150.206 227.216 150.206 227.902V237H147.243V227.853C147.243 227.05 147.038 226.649 146.628 226.649C146.413 226.649 146.247 226.724 146.13 226.873C146.014 227.017 145.934 227.197 145.89 227.413C145.845 227.628 145.823 227.844 145.823 228.06V237H142.86V227.853C142.86 227.592 142.827 227.332 142.76 227.072C142.699 226.812 142.539 226.682 142.279 226.682C142.057 226.682 141.886 226.762 141.764 226.923C141.642 227.083 141.559 227.283 141.515 227.521C141.471 227.753 141.449 227.983 141.449 228.209V237H138.477ZM153.643 237.133C152.951 237.133 152.422 236.972 152.057 236.651C151.697 236.33 151.451 235.89 151.318 235.332C151.186 234.773 151.119 234.139 151.119 233.431C151.119 232.673 151.194 232.053 151.343 231.571C151.493 231.084 151.747 230.686 152.107 230.376C152.472 230.066 152.973 229.803 153.609 229.587L155.452 228.957V227.678C155.452 227.009 155.234 226.674 154.796 226.674C154.398 226.674 154.199 226.945 154.199 227.487V228.234H151.31C151.305 228.19 151.302 228.135 151.302 228.068C151.302 227.996 151.302 227.916 151.302 227.828C151.302 226.588 151.592 225.711 152.173 225.196C152.76 224.676 153.687 224.416 154.954 224.416C155.618 224.416 156.213 224.535 156.739 224.773C157.264 225.005 157.68 225.351 157.984 225.811C158.294 226.27 158.449 226.837 158.449 227.512V237H155.494V235.522C155.35 236.043 155.112 236.441 154.78 236.718C154.448 236.994 154.069 237.133 153.643 237.133ZM154.813 234.825C155.056 234.825 155.222 234.723 155.311 234.518C155.4 234.313 155.444 234.092 155.444 233.854V230.384C155.034 230.55 154.716 230.761 154.489 231.015C154.262 231.264 154.149 231.632 154.149 232.119V233.721C154.149 234.457 154.37 234.825 154.813 234.825Z" fill="#FAF8F4"/>
<path d="M245.033 82.7078C258.598 107.382 263.133 136.015 257.857 163.673C252.581 191.332 237.824 216.284 216.128 234.232C194.433 252.18 167.157 262 139 262C110.843 262 83.5673 252.18 61.8718 234.232" stroke="#FAF8F4" stroke-width="8" stroke-linecap="round"/>
<path d="M62 233.603L80.681 218" stroke="#FAF8F4" stroke-width="8" stroke-linecap="round"/>
<path d="M34.171 199.662C20.3618 174.75 15.784 145.764 21.2433 117.808C26.7027 89.8528 41.8492 64.7193 64.0165 46.8326C86.1837 28.9459 113.95 19.4527 142.428 20.0244C170.906 20.596 198.27 31.1959 219.701 49.9578" stroke="#FAF8F4" stroke-width="8" stroke-linecap="round"/>
<path d="M201 65.6031L219.681 50.0001" stroke="#FAF8F4" stroke-width="8" stroke-linecap="round"/>
<path d="M226 98.6031L244.681 83.0001" stroke="#FAF8F4" stroke-width="8" stroke-linecap="round"/>
</svg>
